<?xml version="1.0" encoding="utf-8"?>
<!-- Generator: Adobe Illustrator 18.1.1, SVG Export Plug-In . SVG Version: 6.00 Build 0)  -->
<!DOCTYPE svg PUBLIC "-//W3C//DTD SVG 1.1//EN" "http://www.w3.org/Graphics/SVG/1.1/DTD/svg11.dtd">
<svg version="1.1" xmlns="http://www.w3.org/2000/svg" xmlns:xlink="http://www.w3.org/1999/xlink" x="0px" y="0px"
	 viewBox="0 0 100 100" enable-background="new 0 0 100 100" xml:space="default">

			
    
    <g id="youtube-play-button">
        <path d="M94.978,19.869c-3.491-2.956-4.77-3.792-11.995-4.155c-2.043-0.101-19.873-0.867-32.328-0.867
				c-11.679,0-28.937,0.707-34.102,0.88c-5.61,0.502-7.687,0.796-10.76,3.425C1.111,23.316,0,31.498,0,44.016v11.913
				c0,14.288,1.898,21.547,5.022,24.202c3.606,3.094,5.984,3.341,8.386,3.712c0.932,0.141,7.531,1.31,36.811,1.31
				c18.259,0,33.954-0.862,35.576-1.071c2.608-0.329,6.355-0.807,9.184-3.951C99.167,75.371,100,67.468,100,56.018V42.14
				C100,34.729,99.587,24.254,94.978,19.869z M39.847,63.974V36.026l26.965,13.919L39.847,63.974z"/>
    </g>
    
</svg>