<?xml version="1.0" encoding="utf-8"?>
<!-- Generator: Adobe Illustrator 18.1.1, SVG Export Plug-In . SVG Version: 6.00 Build 0)  -->
<!DOCTYPE svg PUBLIC "-//W3C//DTD SVG 1.1//EN" "http://www.w3.org/Graphics/SVG/1.1/DTD/svg11.dtd">
<svg version="1.1" xmlns="http://www.w3.org/2000/svg" xmlns:xlink="http://www.w3.org/1999/xlink" x="0px" y="0px"
	 viewBox="0 0 100 100" enable-background="new 0 0 100 100" xml:space="default">

			
    <g id="soundcloud">
        <path d="M1.132,54.259c-0.209,0-0.374,0.161-0.401,0.391L0,60.205l0.731,5.459c0.027,0.23,0.193,0.39,0.401,0.39
            c0.202,0,0.367-0.159,0.399-0.388l0,0v-0.001c0,0,0,0,0,0.001l0.867-5.461L1.531,54.65C1.5,54.421,1.334,54.259,1.132,54.259z"
            />
        <path d="M5.245,51.224c-0.034-0.239-0.205-0.403-0.416-0.403c-0.212,0-0.387,0.17-0.416,0.403
            c0,0.002-0.983,8.981-0.983,8.981l0.983,8.782c0.028,0.236,0.203,0.405,0.416,0.405c0.21,0,0.381-0.166,0.415-0.403l1.118-8.784
            L5.245,51.224z"/>
        <path d="M20.736,42.94c-0.403,0-0.737,0.33-0.756,0.75l-0.783,16.523l0.783,10.678
            c0.02,0.417,0.353,0.746,0.756,0.746c0.401,0,0.733-0.33,0.757-0.749v0.003l0.885-10.679L21.493,43.69
            C21.469,43.27,21.137,42.94,20.736,42.94z"/>
        <path d="M12.718,48.683c-0.31,0-0.562,0.247-0.587,0.578l-0.882,10.948l0.882,10.592
            c0.024,0.328,0.277,0.575,0.587,0.575c0.307,0,0.559-0.247,0.586-0.575l1.002-10.592l-1.002-10.95
            C13.277,48.93,13.025,48.683,12.718,48.683z"/>
        <path d="M28.883,71.636c0.5,0,0.907-0.403,0.927-0.92l0.768-10.498L29.811,38.22
            c-0.02-0.516-0.427-0.92-0.927-0.92c-0.504,0-0.912,0.404-0.928,0.921c0,0.001-0.681,21.996-0.681,21.996l0.681,10.503
            C27.972,71.232,28.38,71.636,28.883,71.636z"/>
        <path d="M45.563,71.686c0.688,0,1.256-0.567,1.269-1.264v0.008v-0.008l0.536-10.197l-0.536-25.406
            c-0.012-0.696-0.581-1.264-1.269-1.264c-0.689,0-1.258,0.567-1.269,1.265l-0.479,25.397c0,0.016,0.479,10.212,0.479,10.212
            C44.305,71.119,44.875,71.686,45.563,71.686z"/>
        <path d="M37.16,71.646c0.599,0,1.082-0.481,1.098-1.094v0.008L38.91,60.22l-0.653-22.157
            c-0.016-0.613-0.499-1.093-1.098-1.093c-0.603,0-1.086,0.48-1.099,1.093l-0.58,22.158l0.581,10.337
            C36.074,71.165,36.556,71.646,37.16,71.646z"/>
        <path d="M16.711,71.549c0.356,0,0.644-0.285,0.671-0.66l0.944-10.68l-0.944-10.16
            c-0.026-0.375-0.314-0.658-0.671-0.658c-0.361,0-0.65,0.285-0.672,0.662l-0.831,10.155l0.831,10.679
            C16.063,71.264,16.35,71.549,16.711,71.549z"/>
        <path d="M8.757,70.964c0.26,0,0.471-0.205,0.501-0.489l1.06-10.268L9.26,49.551
            c-0.031-0.285-0.242-0.49-0.502-0.49c-0.263,0-0.474,0.206-0.501,0.49c0,0.001-0.933,10.655-0.933,10.655l0.933,10.266
            C8.282,70.758,8.493,70.964,8.757,70.964z"/>
        <path d="M41.345,37.694c-0.651,0-1.172,0.517-1.185,1.18l-0.529,21.349l0.529,10.273
            c0.013,0.654,0.533,1.171,1.185,1.171c0.65,0,1.168-0.516,1.183-1.179v0.009l0.594-10.273l-0.594-21.352
            C42.513,38.212,41.995,37.694,41.345,37.694z"/>
        <path d="M24.794,71.658c0.45,0,0.821-0.367,0.842-0.835l0.826-10.607l-0.826-20.302
            c-0.023-0.469-0.393-0.835-0.842-0.835c-0.454,0-0.824,0.367-0.843,0.835c0,0.001-0.731,20.302-0.731,20.302l0.732,10.611
            C23.971,71.291,24.34,71.658,24.794,71.658z"/>
        <path d="M34.017,70.657v-0.005l0.71-10.432l-0.71-22.739c-0.017-0.565-0.462-1.008-1.012-1.008
            c-0.553,0-0.998,0.442-1.013,1.008l-0.63,22.738l0.631,10.437c0.015,0.559,0.46,1.001,1.012,1.001
            c0.551,0,0.994-0.442,1.012-1.004V70.657z"/>
        <path d="M87.701,47.112c-1.685,0-3.293,0.341-4.758,0.955c-0.979-11.086-10.275-19.782-21.614-19.782
            c-2.775,0-5.479,0.546-7.868,1.47c-0.928,0.359-1.175,0.729-1.184,1.446V70.24c0.01,0.753,0.594,1.38,1.328,1.454
            c0.031,0.003,33.875,0.02,34.095,0.02c6.792,0,12.3-5.507,12.3-12.301S94.494,47.112,87.701,47.112z"/>
        <path d="M49.763,31.167c-0.739,0-1.345,0.607-1.356,1.352l-0.555,27.709l0.556,10.056
            c0.01,0.735,0.616,1.34,1.355,1.34c0.737,0,1.343-0.605,1.354-1.351v0.012l0.603-10.058l-0.603-27.711
            C51.106,31.774,50.5,31.167,49.763,31.167z"/>
    </g>
    
    
    <g id="youtube-play-button">
        <path d="M94.978,19.869c-3.491-2.956-4.77-3.792-11.995-4.155c-2.043-0.101-19.873-0.867-32.328-0.867
				c-11.679,0-28.937,0.707-34.102,0.88c-5.61,0.502-7.687,0.796-10.76,3.425C1.111,23.316,0,31.498,0,44.016v11.913
				c0,14.288,1.898,21.547,5.022,24.202c3.606,3.094,5.984,3.341,8.386,3.712c0.932,0.141,7.531,1.31,36.811,1.31
				c18.259,0,33.954-0.862,35.576-1.071c2.608-0.329,6.355-0.807,9.184-3.951C99.167,75.371,100,67.468,100,56.018V42.14
				C100,34.729,99.587,24.254,94.978,19.869z M39.847,63.974V36.026l26.965,13.919L39.847,63.974z"/>
    </g>
    
</svg>