<?xml version="1.0" encoding="utf-8"?>
<!-- Generator: Adobe Illustrator 18.1.1, SVG Export Plug-In . SVG Version: 6.00 Build 0)  -->
<!DOCTYPE svg PUBLIC "-//W3C//DTD SVG 1.1//EN" "http://www.w3.org/Graphics/SVG/1.1/DTD/svg11.dtd">
<svg version="1.1" xmlns="http://www.w3.org/2000/svg" xmlns:xlink="http://www.w3.org/1999/xlink" x="0px" y="0px"
	 viewBox="0 0 100 100" enable-background="new 0 0 100 100" xml:space="default">

			
    
    <g id="youtube-play-button">
        <path d="M73.133,3.867c-2.688-2.276-3.673-2.92-9.236-3.2C62.324,0.59,48.595,0,39.004,0
				c-8.993,0-22.281,0.545-26.259,0.678C8.426,1.064,6.827,1.29,4.46,3.315C0.855,6.521,0,12.821,0,22.46v9.173
				c0,11.002,1.461,16.591,3.867,18.635c2.777,2.382,4.608,2.573,6.457,2.858c0.718,0.109,5.799,1.009,28.344,1.009
				c14.06,0,26.144-0.664,27.393-0.825c2.008-0.253,4.893-0.621,7.072-3.042C76.358,46.603,77,40.518,77,31.702V21.015
				C77,15.309,76.682,7.243,73.133,3.867z M30.682,37.828v-21.52l20.763,10.718L30.682,37.828z"/>
    </g>
    
</svg>